<svg width="32" height="32" viewBox="0 0 32 32" fill="none" xmlns="http://www.w3.org/2000/svg">
  <!-- Abstract overlapping shapes in purple and pink tones -->
  <defs>
    <linearGradient id="purpleGrad" x1="0%" y1="0%" x2="100%" y2="100%">
      <stop offset="0%" style="stop-color:#8746FA;stop-opacity:0.9" />
      <stop offset="100%" style="stop-color:#A855F7;stop-opacity:0.7" />
    </linearGradient>
    <linearGradient id="pinkGrad" x1="0%" y1="0%" x2="100%" y2="100%">
      <stop offset="0%" style="stop-color:#E879F9;stop-opacity:0.9" />
      <stop offset="100%" style="stop-color:#F472B6;stop-opacity:0.8" />
    </linearGradient>
  </defs>
  
  <!-- Main abstract shape (stylized A or lock-like) -->
  <path d="M16 6C12 6 8 8 8 12C8 16 12 18 16 18C20 18 24 16 24 12C24 8 20 6 16 6Z" fill="url(#purpleGrad)"/>
  <path d="M20 10C18 10 16 11.5 16 13.5C16 15.5 18 17 20 17C22 17 24 15.5 24 13.5C24 11.5 22 10 20 10Z" fill="url(#pinkGrad)"/>
  <path d="M12 14C10 14 8 15.5 8 17.5C8 19.5 10 21 12 21C14 21 16 19.5 16 17.5C16 15.5 14 14 12 14Z" fill="#A855F7" opacity="0.6"/>
  
  <!-- Small blue dot on bottom left -->
  <circle cx="6" cy="26" r="2.5" fill="#3B82F6"/>
</svg>

